<svg width="20" height="22" viewBox="0 0 20 22" fill="none" xmlns="http://www.w3.org/2000/svg">
<path fill-rule="evenodd" clip-rule="evenodd" d="M13.992 0.512918C15.326 -0.264082 17 0.696918 17 2.24092V5.49992C17.394 5.49992 17.7841 5.57751 18.148 5.72828C18.512 5.87904 18.8427 6.10002 19.1213 6.3786C19.3999 6.65717 19.6209 6.98789 19.7716 7.35187C19.9224 7.71584 20 8.10595 20 8.49992C20 8.89388 19.9224 9.28399 19.7716 9.64797C19.6209 10.0119 19.3999 10.3427 19.1213 10.6212C18.8427 10.8998 18.512 11.1208 18.148 11.2716C17.7841 11.4223 17.394 11.4999 17 11.4999V14.4999C17 16.1479 15.119 17.0889 13.8 16.0999L11.74 14.5539C10.6388 13.7283 9.35672 13.1771 7.99999 12.9459V15.7899C8.0001 16.4437 7.76389 17.0754 7.33489 17.5687C6.9059 18.062 6.31304 18.3836 5.66561 18.4742C5.01818 18.5648 4.35981 18.4183 3.81187 18.0618C3.26393 17.7052 2.86336 17.1626 2.68399 16.5339L1.11399 11.0379C0.54901 10.3707 0.181329 9.55913 0.0522787 8.69443C-0.0767714 7.82972 0.0379253 6.94615 0.383476 6.14306C0.729027 5.33996 1.29173 4.64916 2.00834 4.14831C2.72495 3.64747 3.56705 3.35643 4.43999 3.30792L7.45799 3.13992C8.93464 3.0579 10.3707 2.62639 11.648 1.88092L13.992 0.512918ZM3.63399 12.5779L4.60699 15.9849C4.65382 16.1498 4.75873 16.2922 4.90237 16.3858C5.046 16.4794 5.21864 16.5179 5.38842 16.4941C5.5582 16.4704 5.71365 16.386 5.82606 16.2565C5.93847 16.1271 6.00025 15.9614 5.99999 15.7899V12.7799L4.43999 12.6929C4.16865 12.6766 3.89909 12.6381 3.63399 12.5779ZM18 8.49992C18 8.2347 17.8946 7.98035 17.7071 7.79281C17.5196 7.60527 17.2652 7.49992 17 7.49992V9.49992C17.2652 9.49992 17.5196 9.39456 17.7071 9.20702C17.8946 9.01949 18 8.76513 18 8.49992Z" fill="#008DFF"/>
</svg>
