<svg width="24" height="25" viewBox="0 0 24 25" fill="none" xmlns="http://www.w3.org/2000/svg">
<path fill-rule="evenodd" clip-rule="evenodd" d="M15.992 3.51292C17.326 2.73592 19 3.69692 19 5.24092V8.49992C19.394 8.49992 19.7841 8.57751 20.148 8.72828C20.512 8.87904 20.8427 9.10002 21.1213 9.3786C21.3999 9.65717 21.6209 9.98789 21.7716 10.3519C21.9224 10.7158 22 11.106 22 11.4999C22 11.8939 21.9224 12.284 21.7716 12.648C21.6209 13.0119 21.3999 13.3427 21.1213 13.6212C20.8427 13.8998 20.512 14.1208 20.148 14.2716C19.7841 14.4223 19.394 14.4999 19 14.4999V17.4999C19 19.1479 17.119 20.0889 15.8 19.0999L13.74 17.5539C12.6388 16.7283 11.3567 16.1771 9.99999 15.9459V18.7899C10.0001 19.4437 9.76389 20.0754 9.33489 20.5687C8.9059 21.062 8.31304 21.3836 7.66561 21.4742C7.01818 21.5648 6.35981 21.4183 5.81187 21.0618C5.26393 20.7052 4.86336 20.1626 4.68399 19.5339L3.11399 14.0379C2.54901 13.3707 2.18133 12.5591 2.05228 11.6944C1.92323 10.8297 2.03793 9.94615 2.38348 9.14306C2.72903 8.33996 3.29173 7.64916 4.00834 7.14831C4.72495 6.64747 5.56705 6.35643 6.43999 6.30792L9.45799 6.13992C10.9346 6.0579 12.3707 5.62639 13.648 4.88092L15.992 3.51292ZM5.63399 15.5779L6.60699 18.9849C6.65382 19.1498 6.75873 19.2922 6.90237 19.3858C7.046 19.4794 7.21864 19.5179 7.38842 19.4941C7.5582 19.4704 7.71365 19.386 7.82606 19.2565C7.93847 19.1271 8.00025 18.9614 7.99999 18.7899V15.7799L6.43999 15.6929C6.16865 15.6766 5.89909 15.6381 5.63399 15.5779ZM20 11.4999C20 11.2347 19.8946 10.9803 19.7071 10.7928C19.5196 10.6053 19.2652 10.4999 19 10.4999V12.4999C19.2652 12.4999 19.5196 12.3946 19.7071 12.207C19.8946 12.0195 20 11.7651 20 11.4999Z" fill="#FF7C7C"/>
</svg>
