<svg width="27" height="27" viewBox="0 0 27 27" fill="none" xmlns="http://www.w3.org/2000/svg">
<path d="M7.35562 6.88163C7.62222 4.33053 9.91945 2.52393 12.6651 2.52393H14.3222C17.0678 2.52393 19.365 4.33053 19.6316 6.88163L20.1857 12.4844C20.3866 14.4068 21.2548 16.3566 22.6582 17.7759C23.3598 18.4854 22.8207 19.9547 21.7863 19.9547H5.2009C4.16653 19.9547 3.62744 18.4854 4.32903 17.7759C5.73239 16.3566 6.6006 14.4068 6.8015 12.4844L7.35562 6.88163Z" stroke="white" stroke-width="1.90802" stroke-linejoin="round"/>
<path d="M10.5511 19.9547H16.4362V20.266C16.4362 21.8132 15.1188 23.0674 13.4936 23.0674C11.8685 23.0674 10.5511 21.8132 10.5511 20.266V19.9547Z" stroke="white" stroke-width="1.90802" stroke-linejoin="round"/>
</svg>
