<svg width="26" height="26" viewBox="0 0 26 26" fill="none" xmlns="http://www.w3.org/2000/svg">
<path d="M16.5898 4.79492H19.1539C19.6979 4.79492 20.2197 5.01104 20.6044 5.39573C20.9891 5.78042 21.2052 6.30217 21.2052 6.8462V20.1795C21.2052 20.7236 20.9891 21.2453 20.6044 21.63C20.2197 22.0147 19.6979 22.2308 19.1539 22.2308H6.8462C6.30217 22.2308 5.78042 22.0147 5.39573 21.63C5.01104 21.2453 4.79492 20.7236 4.79492 20.1795V6.8462C4.79492 6.30217 5.01104 5.78042 5.39573 5.39573C5.78042 5.01104 6.30217 4.79492 6.8462 4.79492H9.41031" stroke="white" stroke-width="1.53846" stroke-linecap="round" stroke-linejoin="round"/>
<path d="M9.5342 4.2975C9.64513 3.85373 9.9012 3.45976 10.2617 3.17822C10.6222 2.89668 11.0665 2.74372 11.5239 2.74365H14.4747C14.9321 2.74372 15.3764 2.89668 15.7369 3.17822C16.0975 3.45976 16.3535 3.85373 16.4645 4.2975L17.1024 6.84622H8.89728L9.5342 4.2975Z" stroke="white" stroke-width="1.53846" stroke-linecap="round" stroke-linejoin="round"/>
<path d="M9.92279 13H16.0766" stroke="white" stroke-width="1.53846" stroke-linecap="round" stroke-linejoin="round"/>
<path d="M9.92279 17.1025H16.0766" stroke="white" stroke-width="1.53846" stroke-linecap="round" stroke-linejoin="round"/>
</svg>
