<svg width="24" height="24" viewBox="0 0 24 24" fill="none" xmlns="http://www.w3.org/2000/svg">
<path d="M10 11H7.101L7.102 10.991C7.23367 10.352 7.48914 9.74494 7.854 9.20405C8.39829 8.40171 9.16203 7.77301 10.054 7.39305C10.3573 7.26438 10.67 7.16738 10.992 7.10205C11.658 6.96764 12.344 6.96764 13.01 7.10205C13.9665 7.29937 14.8443 7.77251 15.535 8.46305L16.951 7.05105C16.3134 6.41199 15.5582 5.90229 14.727 5.55005C14.3031 5.37116 13.8627 5.2345 13.412 5.14205C12.4818 4.95363 11.5232 4.95363 10.593 5.14205C10.1419 5.23476 9.70115 5.37176 9.277 5.55105C8.02753 6.08115 6.95793 6.96114 6.197 8.08505C5.68539 8.84317 5.32731 9.69421 5.143 10.59C5.115 10.725 5.1 10.863 5.08 11H2L6 15L10 11ZM14 13H16.899L16.898 13.008C16.6363 14.2896 15.8809 15.4168 14.795 16.146C14.2554 16.5132 13.6478 16.7689 13.008 16.898C12.3424 17.0323 11.6566 17.0323 10.991 16.898C10.352 16.7664 9.7449 16.5109 9.204 16.146C8.93836 15.9669 8.69055 15.7626 8.464 15.536L7.05 16.95C7.68799 17.5889 8.44354 18.0982 9.275 18.45C9.699 18.63 10.142 18.767 10.59 18.858C11.5199 19.0463 12.4781 19.0463 13.408 18.858C15.2006 18.4861 16.7774 17.4295 17.803 15.913C18.314 15.1554 18.6717 14.3051 18.856 13.41C18.883 13.275 18.899 13.137 18.919 13H22L18 9.00005L14 13Z" fill="black"/>
</svg>
