<svg width="24" height="25" viewBox="0 0 24 25" fill="none" xmlns="http://www.w3.org/2000/svg">
<path d="M13.6275 1.12793C9.88032 2.94996 14.05 8.29296 10.1399 10.1076C11.1686 8.0757 11.5898 4.55515 8.27944 2.16973V2.16987C10.9705 6.48949 6.42422 6.90766 8.78007 13.1872C8.82151 13.2856 8.86088 13.3849 8.89571 13.4864C8.8554 13.3852 8.81688 13.2855 8.78007 13.1872C7.98057 11.2925 6.04458 9.93213 6.53588 6.31732C2.20477 12.8393 9.42929 14.7189 8.40938 20.2029C7.46157 17.7503 3.90619 18.4181 5.32126 15.7694C1.49546 18.792 8.50876 20.4461 4.13616 23.6533H20.4958C18.3915 21.9788 18.6802 18.5679 20.0603 19.3075C19.3746 17.3036 17.505 18.8208 17.413 20.3671C16.6841 15.5921 21.455 15.268 20.8999 9.76409C19.9908 12.9419 17.4609 12.8354 16.5541 12.3573C19.7868 10.8293 20.8581 6.49605 17.3581 4.7988C18.4377 6.14107 18.098 10.6001 15.7998 8.78309C14.947 8.10879 12.51 5.95957 13.6276 1.12793H13.6275ZM5.86238 1.3519C5.56472 1.3594 5.25455 1.45652 4.94269 1.66024C6.72418 2.00416 7.64738 4.55159 7.42201 7.38274C9.03357 4.60657 7.68169 1.30596 5.86238 1.3519ZM16.0947 3.44407C16.4935 5.66801 15.2929 6.96101 14.275 4.8747C15.3206 8.76579 18.7641 9.24579 16.0947 3.44407ZM20.9622 7.8447C22.6317 9.55348 22.1479 12.7544 20.2997 15.3474C24.103 13.6355 24.1088 8.13752 20.9622 7.8447ZM3.18629 11.5439C4.10283 14.1038 -1.03448 14.1725 3.44972 18.9393C1.6238 15.7239 6.60957 15.685 3.18629 11.5439Z" fill="#FF6FCB"/>
</svg>
