<svg width="17" height="17" viewBox="0 0 17 17" fill="none" xmlns="http://www.w3.org/2000/svg">
<path d="M15.1056 9.37435C15.1056 12.8792 12.2719 15.7129 8.76711 15.7129C5.26227 15.7129 2.42857 12.8792 2.42857 9.37435C2.42857 5.86952 5.26227 3.03582 8.76711 3.03582C12.2719 3.03582 15.1056 5.86952 15.1056 9.37435ZM3.17428 9.37435C3.17428 12.4691 5.67241 14.9672 8.76711 14.9672C11.8618 14.9672 14.3599 12.4691 14.3599 9.37435C14.3599 6.27966 11.8618 3.78153 8.76711 3.78153C5.67241 3.78153 3.17428 6.27966 3.17428 9.37435Z" fill="#4A59A7"/>
<path d="M12.272 9.37427L8.65534 12.991L8.13335 12.469L11.228 9.37427L8.13335 6.27957L8.65534 5.75758L12.272 9.37427Z" fill="#4A59A7"/>
<path d="M5.41145 9.74707V9.00136L11.75 9.00136V9.74707L5.41145 9.74707Z" fill="#4A59A7"/>
</svg>
