<svg width="23" height="24" viewBox="0 0 23 24" fill="none" xmlns="http://www.w3.org/2000/svg">
<path d="M1.20685 12.0355C1.20685 13.3566 1.46706 14.6648 1.97261 15.8853C2.47817 17.1058 3.21918 18.2148 4.15333 19.149C5.08748 20.0831 6.19648 20.8241 7.41701 21.3297C8.63754 21.8352 9.94569 22.0954 11.2668 22.0954C12.5879 22.0954 13.896 21.8352 15.1165 21.3297C16.3371 20.8241 17.4461 20.0831 18.3802 19.149C19.3144 18.2148 20.0554 17.1058 20.5609 15.8853C21.0665 14.6648 21.3267 13.3566 21.3267 12.0355C21.3267 9.36746 20.2668 6.80867 18.3802 4.92207C16.4936 3.03547 13.9348 1.97559 11.2668 1.97559C8.59872 1.97559 6.03994 3.03547 4.15333 4.92207C2.26673 6.80867 1.20685 9.36746 1.20685 12.0355Z" stroke="#404040" stroke-width="2.18902" stroke-linecap="round" stroke-linejoin="round"/>
<path d="M11.2669 6.44678V12.0356L14.6202 15.3889" stroke="#404040" stroke-width="2.18902" stroke-linecap="round" stroke-linejoin="round"/>
</svg>
