<svg width="26" height="25" viewBox="0 0 26 25" fill="none" xmlns="http://www.w3.org/2000/svg">
<path d="M2.7431 5.32057C2.7431 4.77654 2.95922 4.25478 3.34391 3.87009C3.7286 3.4854 4.25035 3.26929 4.79439 3.26929H10.9482V21.7308H4.79439C4.25035 21.7308 3.7286 21.5147 3.34391 21.13C2.95922 20.7453 2.7431 20.2236 2.7431 19.6795V5.32057Z" stroke="white" stroke-width="1.84615" stroke-linecap="round" stroke-linejoin="round"/>
<path d="M15.0517 3.26929H21.2055C21.7496 3.26929 22.2713 3.4854 22.656 3.87009C23.0407 4.25478 23.2568 4.77654 23.2568 5.32057V10.4488H15.0517V3.26929Z" stroke="white" stroke-width="1.84615" stroke-linecap="round" stroke-linejoin="round"/>
<path d="M15.0517 14.5513H23.2568V19.6795C23.2568 20.2235 23.0407 20.7453 22.656 21.1299C22.2713 21.5146 21.7496 21.7308 21.2055 21.7308H15.0517V14.5513Z" stroke="white" stroke-width="1.84615" stroke-linecap="round" stroke-linejoin="round"/>
</svg>
