<svg width="24" height="25" viewBox="0 0 24 25" fill="none" xmlns="http://www.w3.org/2000/svg">
<path d="M2.5 12.305C2.5 17.659 6.84 22 12.195 22C16.601 22 20.32 19.061 21.5 15.037C19.8399 16.2423 17.8043 16.8158 15.7592 16.6545C13.7141 16.4932 11.7936 15.6076 10.343 14.157C8.89235 12.7064 8.00679 10.7859 7.84549 8.74079C7.68419 6.69567 8.25773 4.66008 9.463 3C5.44 4.18 2.5 7.899 2.5 12.305Z" stroke="#FECD43" stroke-width="1.5" stroke-linecap="round" stroke-linejoin="round"/>
<path d="M13.25 9C10.826 6 14.961 4.5 16 3C17.039 4.5 21.174 6 18.75 9M13.25 9H18.75M13.25 9V16M18.75 9V16" stroke="#FECD43" stroke-width="1.5" stroke-linecap="round" stroke-linejoin="round"/>
</svg>
