<svg width="26" height="25" viewBox="0 0 26 25" fill="none" xmlns="http://www.w3.org/2000/svg">
<path d="M13 12.5001C15.8323 12.5001 18.1282 10.2041 18.1282 7.37186C18.1282 4.53963 15.8323 2.24365 13 2.24365C10.1678 2.24365 7.87183 4.53963 7.87183 7.37186C7.87183 10.2041 10.1678 12.5001 13 12.5001Z" stroke="white" stroke-width="1.53846" stroke-linecap="round" stroke-linejoin="round"/>
<path d="M18.1285 14.5515H18.4896C19.2394 14.5517 19.9633 14.8257 20.5254 15.3221C21.0874 15.8184 21.4489 16.5029 21.5419 17.2469L21.9429 20.451C21.979 20.7396 21.9532 21.0327 21.8674 21.3106C21.7816 21.5885 21.6376 21.845 21.4451 22.0631C21.2525 22.2811 21.0158 22.4558 20.7506 22.5753C20.4855 22.6949 20.1979 22.7567 19.907 22.7566H6.09366C5.80277 22.7567 5.51519 22.6949 5.25001 22.5753C4.98484 22.4558 4.74812 22.2811 4.55558 22.0631C4.36304 21.845 4.21908 21.5885 4.13325 21.3106C4.04743 21.0327 4.02169 20.7396 4.05776 20.451L4.45776 17.2469C4.55078 16.5025 4.91255 15.8178 5.47503 15.3214C6.0375 14.825 6.76194 14.5512 7.51212 14.5515H7.87212" stroke="white" stroke-width="1.53846" stroke-linecap="round" stroke-linejoin="round"/>
</svg>
