<svg width="24" height="23" viewBox="0 0 24 23" fill="none" xmlns="http://www.w3.org/2000/svg">
<path d="M17.5524 9.37315C18.1535 8.77212 18.1535 7.80597 18.1535 5.87161C18.1535 3.93725 18.1535 2.97109 17.5524 2.37007M17.5524 9.37315C16.9514 9.97417 15.9853 9.97417 14.0509 9.97417H9.94833C8.01397 9.97417 7.04782 9.97417 6.44679 9.37315M17.5524 2.37007C16.9514 1.76904 15.9853 1.76904 14.0509 1.76904H9.94833C8.01397 1.76904 7.04782 1.76904 6.44679 2.37007M6.44679 2.37007C5.84576 2.97109 5.84576 3.93725 5.84576 5.87161C5.84576 7.80597 5.84576 8.77212 6.44679 9.37315M13.0253 5.87161C13.0253 6.14362 12.9172 6.4045 12.7248 6.59684C12.5325 6.78919 12.2716 6.89725 11.9996 6.89725C11.7276 6.89725 11.4667 6.78919 11.2744 6.59684C11.082 6.4045 10.974 6.14362 10.974 5.87161C10.974 5.59959 11.082 5.33871 11.2744 5.14637C11.4667 4.95402 11.7276 4.84597 11.9996 4.84597C12.2716 4.84597 12.5325 4.95402 12.7248 5.14637C12.9172 5.33871 13.0253 5.59959 13.0253 5.87161Z" stroke="white" stroke-width="1.84615"/>
<path d="M18.1534 4.84597C17.3374 4.84597 16.5547 4.52179 15.9777 3.94476C15.4007 3.36772 15.0765 2.58509 15.0765 1.76904M18.1534 6.89725C17.3374 6.89725 16.5547 7.22142 15.9777 7.79846C15.4007 8.37549 15.0765 9.15812 15.0765 9.97417M5.84571 4.84597C6.66176 4.84597 7.44439 4.52179 8.02142 3.94476C8.59846 3.36772 8.92263 2.58509 8.92263 1.76904M5.84571 6.89725C6.66176 6.89725 7.44439 7.22142 8.02142 7.79846C8.59846 8.37549 8.92263 9.15812 8.92263 9.97417M4.82007 19.6029H7.13802C8.17391 19.6029 9.22315 19.7116 10.2314 19.9188C12.0315 20.2875 13.8833 20.3285 15.698 20.0398C16.5883 19.8962 17.4621 19.6757 18.2539 19.2942C18.9678 18.9485 19.8426 18.4634 20.4303 17.9188C21.017 17.3752 21.6283 16.486 22.0611 15.7906C22.4344 15.1937 22.2539 14.4624 21.6652 14.0183C21.3342 13.7781 20.9357 13.6487 20.5267 13.6487C20.1178 13.6487 19.7193 13.7781 19.3883 14.0183L17.5349 15.4183C16.817 15.9619 16.0324 16.4614 15.098 16.6101C14.9852 16.6278 14.8672 16.6439 14.7442 16.6583M14.7442 16.6583L14.6313 16.6706M14.7442 16.6583C14.9083 16.6138 15.0588 16.5292 15.1821 16.4121C15.3369 16.2786 15.4633 16.1153 15.5539 15.932C15.6445 15.7488 15.6974 15.5492 15.7094 15.3451C15.7215 15.141 15.6924 14.9366 15.6241 14.7439C15.5557 14.5512 15.4494 14.3742 15.3113 14.2234C15.1777 14.075 15.022 13.9481 14.8498 13.847C11.9811 12.1352 7.51648 13.4388 4.82007 15.3516M14.7442 16.6583C14.7071 16.6665 14.6693 16.6707 14.6313 16.6706M14.6313 16.6706C14.0128 16.7326 13.3897 16.7339 12.7708 16.6747" stroke="white" stroke-width="1.84615" stroke-linecap="round"/>
<path d="M4.82003 14.5895C4.82003 13.7398 4.13123 13.051 3.28156 13.051C2.4319 13.051 1.7431 13.7398 1.7431 14.5895V19.7177C1.7431 20.5674 2.4319 21.2562 3.28156 21.2562C4.13123 21.2562 4.82003 20.5674 4.82003 19.7177V14.5895Z" stroke="white" stroke-width="1.84615"/>
</svg>
