<svg width="13" height="13" viewBox="0 0 13 13" fill="none" xmlns="http://www.w3.org/2000/svg">
<path d="M2.45691 6.2102L6.19116 2.4754C6.45469 2.20888 6.76831 1.99708 7.11399 1.85218C7.45966 1.70729 7.83057 1.63216 8.20538 1.63111C8.5802 1.63007 8.95152 1.70313 9.29799 1.84609C9.64447 1.98906 9.95927 2.1991 10.2243 2.46415C10.4893 2.72921 10.6993 3.04403 10.8422 3.39053C10.9851 3.73703 11.0581 4.10836 11.0571 4.48317C11.056 4.85798 10.9808 5.22888 10.8358 5.57453C10.6909 5.92019 10.4791 6.23378 10.2125 6.49728L5.90408 10.8062C5.54852 11.1618 5.06628 11.3615 4.56345 11.3615C4.06062 11.3615 3.57838 11.1618 3.22283 10.8062C2.86727 10.4507 2.66752 9.96844 2.66752 9.46561C2.66752 8.96278 2.86727 8.48054 3.22283 8.12499L7.53233 3.81657C7.71159 3.64659 7.95013 3.55331 8.19715 3.55659C8.44417 3.55987 8.68015 3.65946 8.85484 3.83414C9.02952 4.00883 9.12911 4.24481 9.13239 4.49183C9.13567 4.73885 9.04239 4.97739 8.87241 5.15665L5.13762 8.8909" stroke="black" stroke-width="0.8125" stroke-linecap="round" stroke-linejoin="round"/>
</svg>
