<svg width="21" height="20" viewBox="0 0 21 20" fill="none" xmlns="http://www.w3.org/2000/svg">
<path d="M2.5 1.14062H18.5C18.7652 1.14063 19.0196 1.24598 19.2071 1.43352C19.3946 1.62105 19.5 1.87541 19.5 2.14062V3.72662C19.4999 3.99182 19.3946 4.24613 19.207 4.43363L12.793 10.8476C12.6055 11.0351 12.5001 11.2894 12.5 11.5546V17.8596C12.5 18.0116 12.4653 18.1616 12.3987 18.2982C12.332 18.4348 12.235 18.5544 12.1152 18.648C11.9954 18.7415 11.8558 18.8064 11.7071 18.8379C11.5584 18.8694 11.4044 18.8666 11.257 18.8296L9.257 18.3296C9.04075 18.2755 8.84881 18.1506 8.71166 17.9748C8.5745 17.7991 8.50001 17.5826 8.5 17.3596V11.5546C8.49994 11.2894 8.39455 11.0351 8.207 10.8476L1.793 4.43363C1.60545 4.24613 1.50006 3.99182 1.5 3.72662V2.14062C1.5 1.87541 1.60536 1.62105 1.79289 1.43352C1.98043 1.24598 2.23478 1.14063 2.5 1.14062Z" stroke="white" stroke-width="1.5" stroke-linecap="round" stroke-linejoin="round"/>
</svg>
