<svg width="24" height="25" viewBox="0 0 24 25" fill="none" xmlns="http://www.w3.org/2000/svg">
<path d="M22.5 6.62503H19.34C16.8452 6.63161 14.366 6.23136 12 5.44003C9.64267 4.64795 7.17184 4.246 4.685 4.25003H1.5C1.21 4.25003 1 4.42503 1 4.64503V17.645C1.0185 17.7616 1.0802 17.867 1.17284 17.9402C1.26549 18.0134 1.38228 18.049 1.5 18.04H4.685C7.17163 18.0387 9.64203 18.4405 12 19.23C14.3603 20.0241 16.8347 20.4261 19.325 20.42H22.5C22.618 20.4302 22.7354 20.395 22.8283 20.3216C22.9212 20.2482 22.9826 20.1422 23 20.025V7.00003C22.9771 6.8871 22.9135 6.78651 22.8214 6.71738C22.7292 6.64824 22.6148 6.61538 22.5 6.62503Z" fill="white" stroke="#45413C" stroke-width="0.5" stroke-linecap="round" stroke-linejoin="round"/>
<path d="M1 8.10503H4.685C7.17184 8.101 9.64267 8.50295 12 9.29503C14.3642 10.0958 16.8439 10.5029 19.34 10.5H23.025V7.00003C23.0065 6.88342 22.9448 6.77805 22.8522 6.70486C22.7595 6.63168 22.6427 6.59604 22.525 6.60503H19.34C16.8463 6.61806 14.3671 6.22457 12 5.44003C9.64267 4.64795 7.17184 4.246 4.685 4.25003H1.5C1.21 4.25003 1 4.42503 1 4.64503V8.10503Z" fill="#FF8A14" stroke="#45413C" stroke-width="0.5" stroke-linecap="round" stroke-linejoin="round"/>
<path d="M1 17.65C1.0185 17.7666 1.0802 17.872 1.17284 17.9452C1.26549 18.0184 1.38228 18.054 1.5 18.045H4.685C7.17136 18.042 9.64175 18.4422 12 19.23C14.3603 20.024 16.8347 20.426 19.325 20.42H22.5C22.79 20.42 23 20.245 23 20.025V16.565H19.34C16.8447 16.5727 14.3651 16.1707 12 15.375C9.64239 14.5846 7.17157 14.1844 4.685 14.19H1V17.65Z" fill="#46B000" stroke="#45413C" stroke-width="0.5" stroke-linecap="round" stroke-linejoin="round"/>
<path d="M10.0785 13.2182C10.2071 13.506 10.3854 13.7683 10.6031 13.99C10.8208 14.2116 11.0737 14.3881 11.347 14.5094C11.6203 14.6307 11.9087 14.6943 12.1954 14.6966C12.4822 14.6988 12.7617 14.6397 13.0176 14.5225C13.2736 14.4054 13.5011 14.2326 13.6869 14.0141C13.8726 13.7956 14.013 13.5358 14.0999 13.2497C14.1868 12.9636 14.2184 12.6569 14.193 12.3472C14.1677 12.0376 14.0857 11.7312 13.952 11.4457C13.8234 11.1579 13.6451 10.8956 13.4274 10.674C13.2096 10.4523 12.9568 10.2758 12.6835 10.1545C12.4102 10.0332 12.1218 9.96959 11.835 9.96735C11.5483 9.9651 11.2688 10.0243 11.0128 10.1414C10.7568 10.2585 10.5294 10.4313 10.3436 10.6498C10.1579 10.8683 10.0175 11.1281 9.93061 11.4142C9.84372 11.7003 9.81206 12.0071 9.83744 12.3167C9.86282 12.6264 9.94475 12.9328 10.0785 13.2182Z" stroke="#009FD9" stroke-width="0.5" stroke-linecap="round" stroke-linejoin="round"/>
<path d="M11.0695 12.7651C11.1332 12.9043 11.2207 13.0308 11.3271 13.1376C11.4335 13.2444 11.5566 13.3293 11.6894 13.3875C11.8223 13.4456 11.9623 13.4759 12.1014 13.4766C12.2405 13.4773 12.376 13.4484 12.5002 13.3916C12.6244 13.3347 12.7349 13.251 12.8252 13.1452C12.9156 13.0395 12.9842 12.9137 13.0269 12.7751C13.0697 12.6365 13.0859 12.4878 13.0746 12.3375C13.0633 12.1872 13.0247 12.0383 12.961 11.8991C12.8973 11.76 12.8098 11.6335 12.7035 11.5267C12.5971 11.4199 12.474 11.335 12.3412 11.2768C12.2084 11.2186 12.0684 11.1883 11.9293 11.1875C11.7902 11.1868 11.6547 11.2156 11.5305 11.2725C11.4063 11.3293 11.2958 11.413 11.2054 11.5187C11.1151 11.6245 11.0465 11.7502 11.0037 11.8888C10.9609 12.0273 10.9447 12.176 10.956 12.3263C10.9673 12.4766 11.0058 12.6255 11.0695 12.7646" fill="#009FD9"/>
<path d="M12.015 10V14.67M9.83499 12.14L14.19 12.53M13.5 10.765L10.545 13.92M10.46 10.555L13.5 14.06" stroke="#009FD9" stroke-width="0.5" stroke-linecap="round" stroke-linejoin="round"/>
<path opacity="0.15" d="M6.25 23.25C6.25 23.4489 6.8558 23.6397 7.93414 23.7803C9.01247 23.921 10.475 24 12 24C13.525 24 14.9875 23.921 16.0659 23.7803C17.1442 23.6397 17.75 23.4489 17.75 23.25C17.75 23.0511 17.1442 22.8603 16.0659 22.7197C14.9875 22.579 13.525 22.5 12 22.5C10.475 22.5 9.01247 22.579 7.93414 22.7197C6.8558 22.8603 6.25 23.0511 6.25 23.25Z" fill="#45413C"/>
</svg>
