<svg width="28" height="25" viewBox="0 0 28 25" fill="none" xmlns="http://www.w3.org/2000/svg">
<path fill-rule="evenodd" clip-rule="evenodd" d="M2.441 16.4793L1.27433 14.4586C0.964913 13.9227 0.887147 13.2823 1.05814 12.6783C1.22914 12.0742 1.63488 11.5561 2.18613 11.2379L18.8138 1.63787C19.3651 1.31961 20.0166 1.22728 20.6252 1.38119C21.2338 1.53511 21.7495 1.92266 22.0589 2.45859L23.2256 4.47932C22.6744 4.79758 22.2686 5.3157 22.0976 5.9197C21.9266 6.52371 22.0044 7.16411 22.3138 7.70004C22.6232 8.23597 23.139 8.62352 23.7475 8.77744C24.3561 8.93136 25.0077 8.83903 25.5589 8.52077L26.7256 10.5415C27.035 11.0774 27.1128 11.7178 26.9418 12.3218C26.7708 12.9258 26.3651 13.444 25.8138 13.7622L9.18613 23.3622C8.63488 23.6805 7.9833 23.7728 7.37472 23.6189C6.76614 23.465 6.25042 23.0774 5.941 22.5415L4.77433 20.5208C5.32557 20.2025 5.73132 19.6844 5.90232 19.0804C6.07331 18.4764 5.99555 17.836 5.68613 17.3C5.37671 16.7641 4.86098 16.3766 4.2524 16.2226C3.64382 16.0687 2.99224 16.1611 2.441 16.4793ZM4.39202 12.6586L9.05869 20.7415L23.6079 12.3415L18.9413 4.25859L4.39202 12.6586ZM7.63715 13.4793L18.0295 7.47932L20.3628 11.5208L9.97048 17.5208L7.63715 13.4793Z" fill="white"/>
</svg>
