<svg width="30" height="30" viewBox="0 0 30 30" fill="none" xmlns="http://www.w3.org/2000/svg">
<path d="M8.11029 26.0234L19.5929 15.2163L24.9964 20.6199M8.11029 26.0234H21.6192C23.8574 26.0234 25.6719 24.209 25.6719 21.9708V15.2163M8.11029 26.0234C5.87206 26.0234 4.05762 24.209 4.05762 21.9708V8.46185C4.05762 6.22362 5.87206 4.40918 8.11029 4.40918H16.8911M20.2683 7.15889L23.0312 4.40918M23.0312 4.40918L25.6719 7.0346M23.0312 4.40918V11.1636M12.163 10.4882C12.163 11.6073 11.2557 12.5145 10.1366 12.5145C9.01751 12.5145 8.11029 11.6073 8.11029 10.4882C8.11029 9.36908 9.01751 8.46185 10.1366 8.46185C11.2557 8.46185 12.163 9.36908 12.163 10.4882Z" stroke="#4A59A7" stroke-width="1.20079" stroke-linecap="round" stroke-linejoin="round"/>
</svg>
