<svg width="30" height="31" viewBox="0 0 30 31" fill="none" xmlns="http://www.w3.org/2000/svg">
<path opacity="0.3" d="M15 5.30768C9.4875 5.30768 5 9.79518 5 15.3077C5 20.8202 9.4875 25.3077 15 25.3077C20.5125 25.3077 25 20.8202 25 15.3077C25 9.79518 20.5125 5.30768 15 5.30768ZM16.25 21.5577H13.75V14.0577H16.25V21.5577ZM16.25 11.5577H13.75V9.05768H16.25V11.5577Z" fill="#4A59A7"/>
<path d="M13.75 9.05768H16.25V11.5577H13.75V9.05768ZM13.75 14.0577H16.25V21.5577H13.75V14.0577ZM15 2.80768C8.1 2.80768 2.5 8.40768 2.5 15.3077C2.5 22.2077 8.1 27.8077 15 27.8077C21.9 27.8077 27.5 22.2077 27.5 15.3077C27.5 8.40768 21.9 2.80768 15 2.80768ZM15 25.3077C9.4875 25.3077 5 20.8202 5 15.3077C5 9.79518 9.4875 5.30768 15 5.30768C20.5125 5.30768 25 9.79518 25 15.3077C25 20.8202 20.5125 25.3077 15 25.3077Z" fill="#4A59A7"/>
</svg>
