<svg width="31" height="30" viewBox="0 0 31 30" fill="none" xmlns="http://www.w3.org/2000/svg">
<path opacity="0.5" d="M3.23242 19.9999C3.23242 16.4649 3.23242 14.6962 4.33117 13.5987C5.42867 12.4999 7.19742 12.4999 10.7324 12.4999H20.7324C24.2674 12.4999 26.0362 12.4999 27.1337 13.5987C28.2324 14.6962 28.2324 16.4649 28.2324 19.9999C28.2324 23.5349 28.2324 25.3037 27.1337 26.4012C26.0362 27.4999 24.2674 27.4999 20.7324 27.4999H10.7324C7.19742 27.4999 5.42867 27.4999 4.33117 26.4012C3.23242 25.3037 3.23242 23.5349 3.23242 19.9999Z" fill="#4A59A7"/>
<path d="M10.7324 21.2499C11.0639 21.2499 11.3819 21.1182 11.6163 20.8838C11.8507 20.6494 11.9824 20.3315 11.9824 19.9999C11.9824 19.6684 11.8507 19.3505 11.6163 19.1161C11.3819 18.8816 11.0639 18.7499 10.7324 18.7499C10.4009 18.7499 10.083 18.8816 9.84854 19.1161C9.61412 19.3505 9.48242 19.6684 9.48242 19.9999C9.48242 20.3315 9.61412 20.6494 9.84854 20.8838C10.083 21.1182 10.4009 21.2499 10.7324 21.2499ZM15.7324 21.2499C16.0639 21.2499 16.3819 21.1182 16.6163 20.8838C16.8507 20.6494 16.9824 20.3315 16.9824 19.9999C16.9824 19.6684 16.8507 19.3505 16.6163 19.1161C16.3819 18.8816 16.0639 18.7499 15.7324 18.7499C15.4009 18.7499 15.083 18.8816 14.8485 19.1161C14.6141 19.3505 14.4824 19.6684 14.4824 19.9999C14.4824 20.3315 14.6141 20.6494 14.8485 20.8838C15.083 21.1182 15.4009 21.2499 15.7324 21.2499ZM21.9824 19.9999C21.9824 20.3315 21.8507 20.6494 21.6163 20.8838C21.3819 21.1182 21.0639 21.2499 20.7324 21.2499C20.4009 21.2499 20.083 21.1182 19.8485 20.8838C19.6141 20.6494 19.4824 20.3315 19.4824 19.9999C19.4824 19.6684 19.6141 19.3505 19.8485 19.1161C20.083 18.8816 20.4009 18.7499 20.7324 18.7499C21.0639 18.7499 21.3819 18.8816 21.6163 19.1161C21.8507 19.3505 21.9824 19.6684 21.9824 19.9999ZM9.16992 9.99994C9.16992 8.25946 9.86133 6.59026 11.092 5.35955C12.3227 4.12884 13.9919 3.43744 15.7324 3.43744C17.4729 3.43744 19.1421 4.12884 20.3728 5.35955C21.6035 6.59026 22.2949 8.25946 22.2949 9.99994V12.5049C23.0037 12.5112 23.6249 12.5274 24.1699 12.5674V9.99994C24.1699 7.76217 23.281 5.61606 21.6986 4.03373C20.1163 2.45139 17.9702 1.56244 15.7324 1.56244C13.4947 1.56244 11.3485 2.45139 9.76621 4.03373C8.18387 5.61606 7.29492 7.76217 7.29492 9.99994V12.5687C7.9191 12.5279 8.54441 12.5066 9.16992 12.5049V9.99994Z" fill="#4A59A7"/>
</svg>
