<svg width="31" height="31" viewBox="0 0 31 31" fill="none" xmlns="http://www.w3.org/2000/svg">
<path d="M20.3662 14.8085L15.3662 9.80853C15.1304 9.58083 14.8147 9.45484 14.4869 9.45769C14.1592 9.46054 13.8457 9.592 13.6139 9.82376C13.3821 10.0555 13.2507 10.369 13.2478 10.6968C13.245 11.0245 13.371 11.3403 13.5987 11.576L16.4649 14.4423H5.73242V16.9423H16.4649L13.5987 19.8085C13.4793 19.9238 13.3841 20.0618 13.3185 20.2143C13.253 20.3668 13.2186 20.5308 13.2171 20.6968C13.2157 20.8628 13.2473 21.0274 13.3101 21.181C13.373 21.3346 13.4658 21.4742 13.5832 21.5915C13.7005 21.7089 13.8401 21.8017 13.9937 21.8646C14.1474 21.9274 14.3119 21.959 14.4779 21.9576C14.6439 21.9562 14.8079 21.9217 14.9604 21.8562C15.1129 21.7906 15.2509 21.6954 15.3662 21.576L20.3662 16.576C20.6005 16.3416 20.7322 16.0237 20.7322 15.6923C20.7322 15.3608 20.6005 15.0429 20.3662 14.8085Z" fill="#4A59A7"/>
<path opacity="0.5" d="M21.9824 3.19226H9.48242C8.48816 3.19325 7.53491 3.58866 6.83187 4.29171C6.12882 4.99475 5.73341 5.948 5.73242 6.94226V14.4423H16.4649L13.5987 11.576C13.371 11.3403 13.245 11.0245 13.2478 10.6968C13.2507 10.369 13.3821 10.0555 13.6139 9.82374C13.8457 9.59198 14.1592 9.46052 14.4869 9.45767C14.8147 9.45482 15.1304 9.58081 15.3662 9.80851L20.3662 14.8085C20.6005 15.0429 20.7322 15.3608 20.7322 15.6923C20.7322 16.0237 20.6005 16.3416 20.3662 16.576L15.3662 21.576C15.1304 21.8037 14.8147 21.9297 14.4869 21.9269C14.1592 21.924 13.8457 21.7925 13.6139 21.5608C13.3821 21.329 13.2507 21.0155 13.2478 20.6878C13.245 20.36 13.371 20.0443 13.5987 19.8085L16.4649 16.9423H5.73242V24.4423C5.73341 25.4365 6.12882 26.3898 6.83187 27.0928C7.53491 27.7959 8.48816 28.1913 9.48242 28.1923H21.9824C22.9767 28.1913 23.9299 27.7959 24.633 27.0928C25.336 26.3898 25.7314 25.4365 25.7324 24.4423V6.94226C25.7314 5.948 25.336 4.99475 24.633 4.29171C23.9299 3.58866 22.9767 3.19325 21.9824 3.19226Z" fill="#4A59A7"/>
</svg>
