<svg width="26" height="26" viewBox="0 0 26 26" fill="none" xmlns="http://www.w3.org/2000/svg">
<path d="M12.4565 23.257C8.36217 23.257 6.31396 23.257 5.04114 22.0549C3.76935 20.8539 3.76935 18.9195 3.76935 15.0518V10.9493C3.76935 7.08158 3.76935 5.14722 5.04114 3.94619C6.31396 2.74414 8.36217 2.74414 12.4565 2.74414H13.5437C17.6391 2.74414 19.6863 2.74414 20.9591 3.94619C22.2309 5.14722 22.2309 7.08158 22.2309 10.9493M12.4873 23.257H14.0258M8.89755 7.87235H17.1027M8.89755 13.0006H14.0258" stroke="white" stroke-width="1.84615" stroke-linecap="round" stroke-linejoin="round"/>
<path d="M18.6411 19.7597L17.7159 22.9935C17.7066 23.0302 17.7076 23.0688 17.7188 23.1049C17.7301 23.141 17.7511 23.1734 17.7795 23.1983C17.808 23.2232 17.8427 23.2398 17.88 23.2462C17.9173 23.2526 17.9557 23.2486 17.9908 23.2346L20.0267 22.4212C20.1248 22.3819 20.2343 22.3819 20.3323 22.4212L22.3877 23.2418C22.4221 23.2555 22.4596 23.2596 22.4961 23.2538C22.5327 23.2479 22.567 23.2323 22.5954 23.2085C22.6238 23.1848 22.6452 23.1537 22.6574 23.1188C22.6696 23.0838 22.6721 23.0462 22.6647 23.01L21.8811 19.6582M23.2564 17.0982C23.2551 16.283 22.9303 15.5017 22.3534 14.9258C21.7765 14.3498 20.9947 14.0264 20.1795 14.0264C18.48 14.0264 17.1026 15.4018 17.1026 17.0982C17.1029 17.5019 17.1827 17.9017 17.3375 18.2746C17.4923 18.6475 17.719 18.9862 18.0047 19.2715C18.2905 19.5567 18.6296 19.7829 19.0027 19.9371C19.3759 20.0912 19.7758 20.1704 20.1795 20.17C21.879 20.17 23.2564 18.7956 23.2564 17.0982Z" stroke="white" stroke-width="1.84615" stroke-linecap="round" stroke-linejoin="round"/>
</svg>
