<svg width="26" height="26" viewBox="0 0 26 26" fill="none" xmlns="http://www.w3.org/2000/svg">
<path d="M4.66669 19.2502C4.66669 18.1451 5.10567 17.0853 5.88708 16.3039C6.66848 15.5225 7.72828 15.0835 8.83335 15.0835H17.1667C18.2718 15.0835 19.3316 15.5225 20.113 16.3039C20.8944 17.0853 21.3334 18.1451 21.3334 19.2502C21.3334 19.8027 21.1139 20.3326 20.7232 20.7233C20.3325 21.114 19.8026 21.3335 19.25 21.3335H6.75002C6.19749 21.3335 5.66758 21.114 5.27688 20.7233C4.88618 20.3326 4.66669 19.8027 4.66669 19.2502Z" stroke="white" stroke-width="1.5" stroke-linejoin="round"/>
<path d="M13 10.9167C14.7259 10.9167 16.125 9.51764 16.125 7.79175C16.125 6.06586 14.7259 4.66675 13 4.66675C11.2741 4.66675 9.875 6.06586 9.875 7.79175C9.875 9.51764 11.2741 10.9167 13 10.9167Z" stroke="white" stroke-width="1.5"/>
</svg>
