<svg width="26" height="26" viewBox="0 0 26 26" fill="none" xmlns="http://www.w3.org/2000/svg">
<path d="M21.1041 13.677C20.9396 13.4898 20.8489 13.2491 20.8489 13C20.8489 12.7508 20.9396 12.5101 21.1041 12.3229L22.4171 10.8457C22.5618 10.6843 22.6517 10.4812 22.6738 10.2656C22.6959 10.05 22.6491 9.83289 22.5402 9.64549L20.4886 6.0961C20.3807 5.90891 20.2166 5.76053 20.0195 5.67211C19.8224 5.5837 19.6024 5.55976 19.3909 5.6037L17.4623 5.99352C17.217 6.04423 16.9615 6.00336 16.7441 5.87863C16.5268 5.7539 16.3627 5.55393 16.2826 5.31647L15.6569 3.4392C15.5881 3.23544 15.4569 3.05847 15.2821 2.9333C15.1072 2.80812 14.8974 2.74107 14.6823 2.74163H10.579C10.3553 2.72995 10.1339 2.79182 9.9487 2.91778C9.76346 3.04374 9.62455 3.22687 9.55317 3.4392L8.97871 5.31647C8.89869 5.55393 8.73453 5.7539 8.5172 5.87863C8.29986 6.00336 8.04439 6.04423 7.799 5.99352L5.81914 5.6037C5.61864 5.57537 5.41424 5.60701 5.23169 5.69463C5.04914 5.78226 4.89661 5.92195 4.79331 6.0961L2.74164 9.64549C2.62999 9.8308 2.57979 10.0467 2.59821 10.2622C2.61663 10.4778 2.70274 10.682 2.84422 10.8457L4.14703 12.3229C4.31149 12.5101 4.40219 12.7508 4.40219 13C4.40219 13.2491 4.31149 13.4898 4.14703 13.677L2.84422 15.1542C2.70274 15.3179 2.61663 15.5221 2.59821 15.7377C2.57979 15.9532 2.62999 16.1691 2.74164 16.3544L4.79331 19.9038C4.90112 20.091 5.06527 20.2394 5.26237 20.3278C5.45947 20.4162 5.67945 20.4402 5.89095 20.3962L7.81951 20.0064C8.06491 19.9557 8.32038 19.9966 8.53771 20.1213C8.75505 20.246 8.91921 20.446 8.99922 20.6835L9.62498 22.5607C9.69636 22.7731 9.83527 22.9562 10.0205 23.0821C10.2057 23.2081 10.4271 23.27 10.6508 23.2583H14.7541C14.9692 23.2589 15.179 23.1918 15.3539 23.0666C15.5288 22.9415 15.6599 22.7645 15.7287 22.5607L16.3544 20.6835C16.4345 20.446 16.5986 20.246 16.816 20.1213C17.0333 19.9966 17.2888 19.9557 17.5342 20.0064L19.4627 20.3962C19.6742 20.4402 19.8942 20.4162 20.0913 20.3278C20.2884 20.2394 20.4526 20.091 20.5604 19.9038L22.612 16.3544C22.7209 16.167 22.7677 15.9499 22.7456 15.7343C22.7235 15.5187 22.6336 15.3156 22.4889 15.1542L21.1041 13.677ZM19.5756 15.0516L20.3962 15.9749L19.0832 18.2522L17.8727 18.006C17.1339 17.855 16.3653 17.9805 15.7129 18.3587C15.0605 18.7369 14.5696 19.3415 14.3336 20.0577L13.9437 21.2066H11.3176L10.9483 20.0372C10.7122 19.321 10.2214 18.7164 9.56898 18.3382C8.91657 17.96 8.14801 17.8345 7.40918 17.9855L6.1987 18.2317L4.86511 15.9646L5.68578 15.0414C6.19044 14.4771 6.46945 13.7467 6.46945 12.9897C6.46945 12.2327 6.19044 11.5023 5.68578 10.938L4.86511 10.0148L6.17818 7.75795L7.38866 8.00415C8.12749 8.15518 8.89605 8.02968 9.54846 7.65147C10.2009 7.27327 10.6917 6.66868 10.9278 5.95249L11.3176 4.7933H13.9437L14.3336 5.96275C14.5696 6.67894 15.0605 7.28352 15.7129 7.66173C16.3653 8.03994 17.1339 8.16544 17.8727 8.01441L19.0832 7.76821L20.3962 10.0456L19.5756 10.9688C19.0766 11.5317 18.801 12.258 18.801 13.0102C18.801 13.7625 19.0766 14.4887 19.5756 15.0516ZM12.6307 8.89663C11.8191 8.89663 11.0258 9.13729 10.351 9.58817C9.67619 10.039 9.15026 10.6799 8.83969 11.4297C8.52912 12.1795 8.44786 13.0045 8.60618 13.8005C8.76451 14.5965 9.15532 15.3276 9.72918 15.9015C10.303 16.4753 11.0342 16.8661 11.8302 17.0245C12.6261 17.1828 13.4512 17.1015 14.2009 16.7909C14.9507 16.4804 15.5916 15.9544 16.0425 15.2797C16.4934 14.6049 16.734 13.8115 16.734 13C16.734 11.9117 16.3017 10.868 15.5322 10.0985C14.7626 9.32894 13.7189 8.89663 12.6307 8.89663ZM12.6307 15.0516C12.2249 15.0516 11.8282 14.9313 11.4908 14.7059C11.1534 14.4804 10.8905 14.16 10.7352 13.7851C10.5799 13.4102 10.5393 12.9977 10.6184 12.5997C10.6976 12.2017 10.893 11.8361 11.1799 11.5492C11.4669 11.2623 11.8324 11.0669 12.2304 10.9877C12.6284 10.9086 13.0409 10.9492 13.4158 11.1045C13.7907 11.2598 14.1111 11.5227 14.3366 11.8601C14.562 12.1975 14.6823 12.5942 14.6823 13C14.6823 13.5441 14.4662 14.0659 14.0814 14.4507C13.6967 14.8355 13.1748 15.0516 12.6307 15.0516Z" fill="white"/>
</svg>
