<svg width="26" height="26" viewBox="0 0 26 26" fill="none" xmlns="http://www.w3.org/2000/svg">
<path d="M4.28198 10.3006C4.28198 6.73852 4.28198 4.95699 5.33326 3.85032C6.38455 2.74365 8.07685 2.74365 11.4615 2.74365H14.5384C17.923 2.74365 19.6153 2.74365 20.6666 3.85134C21.7179 4.95596 21.7179 6.7375 21.7179 10.2995V15.6985C21.7179 19.2606 21.7179 21.0421 20.6666 22.1488C19.6153 23.2554 17.923 23.2565 14.5384 23.2565H11.4615C8.07685 23.2565 6.38455 23.2565 5.33326 22.1488C4.28198 21.0442 4.28198 19.2626 4.28198 15.7006V10.3006Z" stroke="white" stroke-width="1.84615" stroke-linecap="round" stroke-linejoin="round"/>
<path d="M8.89734 2.74365L8.98144 3.24929C9.18657 4.47699 9.28913 5.09134 9.7199 5.45647C10.1486 5.82058 10.7712 5.82058 12.0163 5.82058H13.9825C15.2266 5.82058 15.8491 5.82058 16.2799 5.45647C16.7107 5.09134 16.8132 4.47699 17.0173 3.24929L17.1025 2.74365M8.89734 17.1026H12.9999M8.89734 11.9744H17.1025" stroke="white" stroke-width="1.84615" stroke-linecap="round" stroke-linejoin="round"/>
</svg>
