<svg width="24" height="25" viewBox="0 0 24 25" fill="none" xmlns="http://www.w3.org/2000/svg">
<path d="M23.25 11H22.2C21.6 9.2 19.95 8 18 8C16.05 8 14.4 9.35 13.8 11.15C13.35 10.55 12.75 10.25 12 10.25C10.875 10.25 10.65 10.55 10.2 11.15C9.6 9.35 7.95 8 6 8C4.05 8 2.4 9.35 1.8 11H0.75C0.3 11 0 11.3 0 11.75C0 12.2 0.3 12.5 0.75 12.5H1.5C1.5 15.05 3.45 17 6 17C8.25 17 10.05 15.35 10.5 13.25C10.95 13.25 11.25 12.95 11.25 12.5C11.25 12.05 11.55 11.75 12 11.75C12.45 11.75 12.75 12.05 12.75 12.5C12.75 12.95 13.05 13.25 13.5 13.25C13.8 15.35 15.75 17 18 17C20.55 17 22.5 15.05 22.5 12.5H23.25C23.7 12.5 24 12.2 24 11.75C24 11.3 23.7 11 23.25 11ZM6 15.5C4.35 15.5 3 14.15 3 12.5C3 10.85 4.35 9.5 6 9.5C7.65 9.5 9 10.85 9 12.5C9 14.15 7.65 15.5 6 15.5ZM18 15.5C16.35 15.5 15 14.15 15 12.5C15 10.85 16.35 9.5 18 9.5C19.65 9.5 21 10.85 21 12.5C21 14.15 19.65 15.5 18 15.5Z" fill="#41BFE2"/>
</svg>
