<svg width="34" height="30" viewBox="0 0 34 30" fill="none" xmlns="http://www.w3.org/2000/svg">
<path fill-rule="evenodd" clip-rule="evenodd" d="M2.96419 19.7753L1.54753 17.3504C1.1718 16.7073 1.07737 15.9388 1.28501 15.214C1.49264 14.4892 1.98534 13.8674 2.6547 13.4855L22.8455 1.96554C23.5148 1.58363 24.306 1.47283 25.045 1.65753C25.784 1.84223 26.4103 2.30729 26.786 2.95041L28.2026 5.37528C27.5333 5.75719 27.0406 6.37894 26.833 7.10374C26.6253 7.82855 26.7197 8.59703 27.0955 9.24015C27.4712 9.88327 28.0974 10.3483 28.8364 10.533C29.5754 10.7177 30.3666 10.6069 31.036 10.225L32.4526 12.6499C32.8284 13.293 32.9228 14.0615 32.7152 14.7863C32.5075 15.5111 32.0148 16.1329 31.3455 16.5148L11.1547 28.0348C10.4853 28.4167 9.69413 28.5275 8.95514 28.3428C8.21615 28.1581 7.58992 27.693 7.21419 27.0499L5.79753 24.625C6.46689 24.2431 6.95959 23.6214 7.16722 22.8966C7.37486 22.1718 7.28043 21.4033 6.9047 20.7601C6.52898 20.117 5.90274 19.652 5.16375 19.4673C4.42476 19.2826 3.63356 19.3934 2.96419 19.7753ZM5.33329 15.1904L11 24.8899L28.6669 14.8099L23.0002 5.11041L5.33329 15.1904ZM9.27381 16.1753L21.893 8.97528L24.7264 13.825L12.1071 21.025L9.27381 16.1753Z" fill="#FF9066"/>
</svg>
