<svg width="34" height="30" viewBox="0 0 34 30" fill="none" xmlns="http://www.w3.org/2000/svg">
<path fill-rule="evenodd" clip-rule="evenodd" d="M2.96407 19.7753L1.5474 17.3504C1.17168 16.7073 1.07725 15.9388 1.28489 15.214C1.49252 14.4892 1.98522 13.8674 2.65458 13.4855L22.8453 1.96554C23.5147 1.58363 24.3059 1.47283 25.0449 1.65753C25.7839 1.84223 26.4101 2.30729 26.7859 2.95041L28.2025 5.37528C27.5332 5.75719 27.0405 6.37894 26.8328 7.10374C26.6252 7.82855 26.7196 8.59703 27.0953 9.24015C27.4711 9.88327 28.0973 10.3483 28.8363 10.533C29.5753 10.7177 30.3665 10.6069 31.0359 10.225L32.4525 12.6499C32.8282 13.293 32.9227 14.0615 32.715 14.7863C32.5074 15.5111 32.0147 16.1329 31.3453 16.5148L11.1546 28.0348C10.4852 28.4167 9.69401 28.5275 8.95502 28.3428C8.21603 28.1581 7.58979 27.693 7.21407 27.0499L5.7974 24.625C6.46677 24.2431 6.95946 23.6214 7.1671 22.8966C7.37474 22.1718 7.28031 21.4033 6.90458 20.7601C6.52886 20.117 5.90262 19.652 5.16363 19.4673C4.42464 19.2826 3.63344 19.3934 2.96407 19.7753ZM5.33317 15.1904L10.9998 24.8899L28.6668 14.8099L23.0001 5.11041L5.33317 15.1904ZM9.27368 16.1753L21.8929 8.97528L24.7262 13.825L12.107 21.025L9.27368 16.1753Z" fill="#8280FF"/>
</svg>
