<svg width="15" height="17" viewBox="0 0 15 17" fill="none" xmlns="http://www.w3.org/2000/svg">
<path d="M0.482422 7.89827L6.22742 2.15244C6.63286 1.7424 7.11535 1.41655 7.64716 1.19364C8.17897 0.970726 8.74959 0.855141 9.32623 0.853533C9.90286 0.851924 10.4741 0.964324 11.0072 1.18427C11.5402 1.40421 12.0245 1.72736 12.4322 2.13513C12.8399 2.5429 13.163 3.02725 13.3829 3.56032C13.6028 4.0934 13.7151 4.66467 13.7134 5.24131C13.7117 5.81794 13.5961 6.38856 13.3731 6.92033C13.1501 7.45211 12.8242 7.93456 12.4141 8.33994L5.78575 14.9691C5.23875 15.5161 4.49684 15.8234 3.72326 15.8234C2.94967 15.8234 2.20776 15.5161 1.66076 14.9691C1.11375 14.4221 0.80644 13.6802 0.80644 12.9066C0.80644 12.133 1.11375 11.3911 1.66076 10.8441L8.29076 4.21577C8.56655 3.95426 8.93353 3.81075 9.31357 3.8158C9.6936 3.82085 10.0566 3.97406 10.3254 4.24281C10.5941 4.51155 10.7473 4.8746 10.7524 5.25463C10.7574 5.63466 10.6139 6.00165 10.3524 6.27744L4.60659 12.0224" stroke="black" stroke-width="0.8125" stroke-linecap="round" stroke-linejoin="round"/>
</svg>
