<svg width="21" height="23" viewBox="0 0 21 23" fill="none" xmlns="http://www.w3.org/2000/svg">
<path d="M10.4715 0.78833C15.7644 0.78833 20.0548 5.26533 20.0548 10.7883C20.0548 16.3113 15.7644 20.7883 10.4715 20.7883C5.17864 20.7883 0.888184 16.3113 0.888184 10.7883C0.888184 5.26533 5.17864 0.78833 10.4715 0.78833ZM10.4715 2.78833C8.43819 2.78833 6.48814 3.63119 5.05036 5.13148C3.61259 6.63177 2.80485 8.6666 2.80485 10.7883C2.80485 12.9101 3.61259 14.9449 5.05036 16.4452C6.48814 17.9455 8.43819 18.7883 10.4715 18.7883C12.5048 18.7883 14.4549 17.9455 15.8927 16.4452C17.3304 14.9449 18.1382 12.9101 18.1382 10.7883C18.1382 8.6666 17.3304 6.63177 15.8927 5.13148C14.4549 3.63119 12.5048 2.78833 10.4715 2.78833ZM10.4715 4.78833C10.7062 4.78836 10.9328 4.87829 11.1082 5.04105C11.2836 5.2038 11.3957 5.42808 11.4231 5.67133L11.4298 5.78833V10.3743L14.0241 13.0813C14.1959 13.2613 14.2957 13.5028 14.3032 13.7567C14.3106 14.0107 14.2251 14.258 14.0641 14.4486C13.903 14.6392 13.6785 14.7586 13.4361 14.7827C13.1938 14.8068 12.9517 14.7337 12.7591 14.5783L12.669 14.4953L9.79397 11.4953C9.64503 11.3398 9.54937 11.1373 9.52181 10.9193L9.51318 10.7883V5.78833C9.51318 5.52311 9.61415 5.26876 9.79387 5.08122C9.9736 4.89369 10.2174 4.78833 10.4715 4.78833Z" fill="#8E8E93"/>
</svg>
