<svg width="21" height="21" viewBox="0 0 21 21" fill="none" xmlns="http://www.w3.org/2000/svg">
<path d="M9.87207 15.3506H11.8721V9.35059H9.87207V15.3506ZM10.8721 7.35059C11.1554 7.35059 11.3931 7.25459 11.5851 7.06259C11.7771 6.87059 11.8727 6.63325 11.8721 6.35059C11.8714 6.06792 11.7754 5.83059 11.5841 5.63859C11.3927 5.44659 11.1554 5.35059 10.8721 5.35059C10.5887 5.35059 10.3514 5.44659 10.1601 5.63859C9.96874 5.83059 9.87274 6.06792 9.87207 6.35059C9.8714 6.63325 9.9674 6.87092 10.1601 7.06359C10.3527 7.25625 10.5901 7.35192 10.8721 7.35059ZM10.8721 20.3506C9.48874 20.3506 8.18874 20.0879 6.97207 19.5626C5.7554 19.0373 4.69707 18.3249 3.79707 17.4256C2.89707 16.5263 2.18474 15.4679 1.66007 14.2506C1.1354 13.0333 0.872738 11.7333 0.872072 10.3506C0.871405 8.96792 1.13407 7.66792 1.66007 6.45059C2.18607 5.23325 2.8984 4.17492 3.79707 3.27559C4.69574 2.37625 5.75407 1.66392 6.97207 1.13859C8.19007 0.613253 9.49007 0.350586 10.8721 0.350586C12.2541 0.350586 13.5541 0.613253 14.7721 1.13859C15.9901 1.66392 17.0484 2.37625 17.9471 3.27559C18.8457 4.17492 19.5584 5.23325 20.0851 6.45059C20.6117 7.66792 20.8741 8.96792 20.8721 10.3506C20.8701 11.7333 20.6074 13.0333 20.0841 14.2506C19.5607 15.4679 18.8484 16.5263 17.9471 17.4256C17.0457 18.3249 15.9874 19.0376 14.7721 19.5636C13.5567 20.0896 12.2567 20.3519 10.8721 20.3506Z" fill="#4A59A7"/>
</svg>
