<svg width="29" height="28" viewBox="0 0 29 28" fill="none" xmlns="http://www.w3.org/2000/svg">
<path d="M14.2913 14C13.0536 14 11.8666 13.5084 10.9914 12.6332C10.1163 11.758 9.62461 10.571 9.62461 9.33335C9.62461 8.09568 10.1163 6.90869 10.9914 6.03352C11.8666 5.15835 13.0536 4.66669 14.2913 4.66669C15.529 4.66669 16.7159 5.15835 17.5911 6.03352C18.4663 6.90869 18.9579 8.09568 18.9579 9.33335C18.9579 10.571 18.4663 11.758 17.5911 12.6332C16.7159 13.5084 15.529 14 14.2913 14ZM14.2913 17.5C18.0083 17.5 21.3438 18.1662 23.6246 21.0735V23.3334H4.95795V21.0735C7.23878 18.165 10.5743 17.5 14.2913 17.5Z" fill="black"/>
</svg>
