<svg width="29" height="28" viewBox="0 0 29 28" fill="none" xmlns="http://www.w3.org/2000/svg">
<path d="M14.2913 2.33337C15.8384 2.33337 17.3221 2.94796 18.4161 4.04192C19.51 5.13588 20.1246 6.61961 20.1246 8.16671V11.6667C21.0529 11.6667 21.9431 12.0355 22.5995 12.6918C23.2559 13.3482 23.6246 14.2385 23.6246 15.1667V22.1667C23.6246 23.095 23.2559 23.9852 22.5995 24.6416C21.9431 25.298 21.0529 25.6667 20.1246 25.6667H8.45795C7.52969 25.6667 6.63945 25.298 5.98307 24.6416C5.3267 23.9852 4.95795 23.095 4.95795 22.1667V15.1667C4.95795 14.2385 5.3267 13.3482 5.98307 12.6918C6.63945 12.0355 7.52969 11.6667 8.45795 11.6667V8.16671C8.45795 6.61961 9.07253 5.13588 10.1665 4.04192C11.2605 2.94796 12.7442 2.33337 14.2913 2.33337ZM14.2913 16.3334C13.7026 16.3332 13.1356 16.5555 12.704 16.9558C12.2723 17.3561 12.0079 17.9047 11.9638 18.4917L11.9579 18.6667C11.9579 19.1282 12.0948 19.5793 12.3512 19.963C12.6076 20.3468 12.972 20.6458 13.3984 20.8224C13.8247 20.999 14.2939 21.0452 14.7465 20.9552C15.1991 20.8652 15.6149 20.6429 15.9412 20.3166C16.2675 19.9903 16.4897 19.5745 16.5798 19.1219C16.6698 18.6693 16.6236 18.2001 16.447 17.7738C16.2704 17.3474 15.9713 16.983 15.5876 16.7266C15.2039 16.4702 14.7528 16.3334 14.2913 16.3334ZM14.2913 4.66671C13.363 4.66671 12.4728 5.03546 11.8164 5.69183C11.16 6.34821 10.7913 7.23845 10.7913 8.16671V11.6667H17.7913V8.16671C17.7913 7.23845 17.4225 6.34821 16.7662 5.69183C16.1098 5.03546 15.2195 4.66671 14.2913 4.66671Z" fill="black"/>
</svg>
