<svg width="25" height="25" viewBox="0 0 25 25" fill="none" xmlns="http://www.w3.org/2000/svg">
<path d="M21.7216 8.96827C21.2267 7.75109 20.4922 6.64585 19.5616 5.71827C18.6329 4.7885 17.53 4.05091 16.316 3.54767C15.102 3.04443 13.8007 2.7854 12.4866 2.7854C11.1724 2.7854 9.87117 3.04443 8.65719 3.54767C7.44321 4.05091 6.34032 4.7885 5.41159 5.71827C4.47741 6.64493 3.73941 7.75024 3.24159 8.96827C2.74034 10.1795 2.48211 11.4774 2.48159 12.7883C2.47444 14.0817 2.72604 15.3635 3.22159 16.5583L2.72159 20.2083C2.62064 20.6777 2.69644 21.1679 2.93447 21.5849C3.17251 22.0019 3.55604 22.3165 4.01159 22.4683C4.30859 22.5663 4.62459 22.5903 4.93159 22.5383L8.58159 21.9983C9.8077 22.5229 11.128 22.7917 12.4616 22.7883C14.1053 22.788 15.7237 22.3825 17.1734 21.6078C18.6231 20.833 19.8595 19.7128 20.7731 18.3464C21.6867 16.9799 22.2494 15.4093 22.4113 13.7736C22.5733 12.1378 22.3295 10.4874 21.7016 8.96827H21.7216ZM8.20159 14.3983C7.99017 14.3982 7.78082 14.3565 7.58551 14.2755C7.3902 14.1946 7.21275 14.0759 7.0633 13.9264C6.91384 13.7768 6.79531 13.5993 6.71446 13.4039C6.63361 13.2086 6.59203 12.9992 6.59209 12.7878C6.59216 12.5763 6.63387 12.367 6.71484 12.1717C6.79581 11.9764 6.91446 11.7989 7.06401 11.6495C7.21355 11.5 7.39108 11.3815 7.58644 11.3006C7.78179 11.2198 7.99117 11.1782 8.20259 11.1783C8.62959 11.1783 9.0391 11.3479 9.34104 11.6498C9.64297 11.9518 9.81259 12.3613 9.81259 12.7883C9.81259 13.2153 9.64297 13.6248 9.34104 13.9267C9.0391 14.2286 8.62859 14.3983 8.20159 14.3983ZM12.4826 14.3983C12.2712 14.3982 12.0618 14.3565 11.8665 14.2755C11.6712 14.1946 11.4938 14.0759 11.3443 13.9264C11.1948 13.7768 11.0763 13.5993 10.9955 13.4039C10.9146 13.2086 10.873 12.9992 10.8731 12.7878C10.8732 12.5763 10.9149 12.367 10.9958 12.1717C11.0768 11.9764 11.1955 11.7989 11.345 11.6495C11.4946 11.5 11.6721 11.3815 11.8674 11.3006C12.0628 11.2198 12.2722 11.1782 12.4836 11.1783C12.9106 11.1783 13.3201 11.3479 13.622 11.6498C13.924 11.9518 14.0936 12.3613 14.0936 12.7883C14.0936 13.2153 13.924 13.6248 13.622 13.9267C13.3201 14.2286 12.9106 14.3983 12.4836 14.3983M16.7636 14.3983C16.5522 14.3982 16.3428 14.3565 16.1475 14.2755C15.9522 14.1946 15.7748 14.0759 15.6253 13.9264C15.4758 13.7768 15.3573 13.5993 15.2765 13.4039C15.1956 13.2086 15.154 12.9992 15.1541 12.7878C15.1542 12.5763 15.1959 12.367 15.2768 12.1717C15.3578 11.9764 15.4765 11.7989 15.626 11.6495C15.7756 11.5 15.9531 11.3815 16.1484 11.3006C16.3438 11.2198 16.5532 11.1782 16.7646 11.1783C17.1916 11.1783 17.6011 11.3479 17.903 11.6498C18.205 11.9518 18.3746 12.3613 18.3746 12.7883C18.3746 13.2153 18.205 13.6248 17.903 13.9267C17.6011 14.2286 17.1906 14.3983 16.7636 14.3983Z" fill="white"/>
</svg>
