<svg width="25" height="25" viewBox="0 0 25 25" fill="none" xmlns="http://www.w3.org/2000/svg">
<path d="M11.5 15.5V13.5H13.5V15.5H11.5ZM10.5 6.5H14.5V4.5H10.5V6.5ZM4.5 21.5C3.95 21.5 3.47933 21.3043 3.088 20.913C2.69667 20.5217 2.50067 20.0507 2.5 19.5V15.5H9.5V16.5C9.5 16.7833 9.596 17.021 9.788 17.213C9.98 17.405 10.2173 17.5007 10.5 17.5H14.5C14.7833 17.5 15.021 17.404 15.213 17.212C15.405 17.02 15.5007 16.7827 15.5 16.5V15.5H22.5V19.5C22.5 20.05 22.3043 20.521 21.913 20.913C21.5217 21.305 21.0507 21.5007 20.5 21.5H4.5ZM2.5 13.5V8.5C2.5 7.95 2.696 7.47933 3.088 7.088C3.48 6.69667 3.95067 6.50067 4.5 6.5H8.5V4.5C8.5 3.95 8.696 3.47933 9.088 3.088C9.48 2.69667 9.95067 2.50067 10.5 2.5H14.5C15.05 2.5 15.521 2.696 15.913 3.088C16.305 3.48 16.5007 3.95067 16.5 4.5V6.5H20.5C21.05 6.5 21.521 6.696 21.913 7.088C22.305 7.48 22.5007 7.95067 22.5 8.5V13.5H15.5V12.5C15.5 12.2167 15.404 11.9793 15.212 11.788C15.02 11.5967 14.7827 11.5007 14.5 11.5H10.5C10.2167 11.5 9.97933 11.596 9.788 11.788C9.59667 11.98 9.50067 12.2173 9.5 12.5V13.5H2.5Z" fill="#229CFF"/>
</svg>
