<svg width="25" height="24" viewBox="0 0 25 24" fill="none" xmlns="http://www.w3.org/2000/svg">
<path d="M7.00008 3.75H16.6601C17.1951 3.75 17.6401 3.75 18.0051 3.78C19.4141 3.895 20.3731 4.9 20.4851 6.324C20.5501 7.135 20.5701 8.272 20.5771 8.942C20.5791 9.12733 20.5801 9.313 20.5801 9.499C20.5802 9.69791 20.5013 9.88873 20.3608 10.0295C20.2202 10.1702 20.0295 10.2494 19.8306 10.2495C19.6317 10.2496 19.4408 10.1707 19.3001 10.0302C19.1594 9.88963 19.0802 9.69891 19.0801 9.5C19.0791 9.0833 19.0744 8.66662 19.0661 8.25H4.58008V16.3C4.58008 16.872 4.58008 17.257 4.60508 17.552C4.62808 17.84 4.67008 17.977 4.71608 18.067C4.83608 18.303 5.02708 18.494 5.26308 18.614C5.35308 18.66 5.49008 18.702 5.77708 18.725C6.07308 18.749 6.45708 18.75 7.03008 18.75H16.6301C17.2021 18.75 17.5871 18.75 17.8821 18.725C18.1701 18.702 18.3071 18.66 18.3971 18.614C18.4851 18.5664 18.5817 18.5369 18.6812 18.5272C18.7808 18.5175 18.8813 18.5278 18.9768 18.5576C19.0723 18.5873 19.1609 18.6358 19.2374 18.7003C19.3139 18.7648 19.3767 18.844 19.4221 18.9331C19.4675 19.0222 19.4947 19.1195 19.5019 19.2193C19.5092 19.3191 19.4964 19.4193 19.4643 19.514C19.4323 19.6088 19.3816 19.6962 19.3153 19.771C19.2489 19.8459 19.1683 19.9068 19.0781 19.95C18.7411 20.122 18.3851 20.19 18.0051 20.22C17.6411 20.25 17.1951 20.25 16.6611 20.25H6.99908C6.46508 20.25 6.01908 20.25 5.65508 20.22C5.27508 20.19 4.91908 20.122 4.58208 19.95C4.06483 19.6869 3.64409 19.2668 3.38008 18.75C3.20808 18.412 3.14008 18.056 3.11008 17.676C3.08008 17.311 3.08008 16.866 3.08008 16.332V7.67C3.08008 7.137 3.08008 6.69 3.11008 6.325C3.22308 4.944 4.24408 3.895 5.65508 3.78C6.02008 3.75 6.46508 3.75 7.00008 3.75Z" fill="white"/>
<path d="M6.08008 10C6.08008 9.80109 6.1591 9.61032 6.29975 9.46967C6.4404 9.32902 6.63117 9.25 6.83008 9.25H12.8301C13.029 9.25 13.2198 9.32902 13.3604 9.46967C13.5011 9.61032 13.5801 9.80109 13.5801 10C13.5801 10.1989 13.5011 10.3897 13.3604 10.5303C13.2198 10.671 13.029 10.75 12.8301 10.75H6.83008C6.63117 10.75 6.4404 10.671 6.29975 10.5303C6.1591 10.3897 6.08008 10.1989 6.08008 10Z" fill="white"/>
<path fill-rule="evenodd" clip-rule="evenodd" d="M17.3308 10.25C16.8284 10.2502 16.3329 10.3668 15.8832 10.5908C15.4335 10.8148 15.0419 11.1399 14.739 11.5407C14.4361 11.9416 14.2303 12.4071 14.1377 12.9009C14.0451 13.3947 14.0682 13.9032 14.2053 14.3865C14.3423 14.8699 14.5895 15.3148 14.9275 15.6865C15.2655 16.0582 15.6851 16.3465 16.1532 16.5287C16.6214 16.7109 17.1254 16.7821 17.6258 16.7367C18.1261 16.6913 18.6091 16.5305 19.0368 16.267L20.3008 17.53C20.3695 17.6037 20.4523 17.6628 20.5443 17.7038C20.6363 17.7448 20.7356 17.7668 20.8363 17.7686C20.937 17.7704 21.037 17.7518 21.1304 17.7141C21.2238 17.6764 21.3086 17.6203 21.3798 17.549C21.451 17.4778 21.5072 17.393 21.5449 17.2996C21.5826 17.2062 21.6012 17.1062 21.5994 17.0055C21.5976 16.9048 21.5756 16.8055 21.5346 16.7135C21.4936 16.6215 21.4345 16.5387 21.3608 16.47L20.0978 15.206C20.4015 14.7136 20.5682 14.149 20.5808 13.5706C20.5933 12.9921 20.4513 12.4208 20.1692 11.9157C19.8872 11.4105 19.4754 10.9898 18.9764 10.697C18.4775 10.4042 17.9094 10.2499 17.3308 10.25ZM15.5808 13.5C15.5808 13.0359 15.7652 12.5908 16.0934 12.2626C16.4215 11.9344 16.8667 11.75 17.3308 11.75C17.7949 11.75 18.24 11.9344 18.5682 12.2626C18.8964 12.5908 19.0808 13.0359 19.0808 13.5C19.0808 13.9641 18.8964 14.4092 18.5682 14.7374C18.24 15.0656 17.7949 15.25 17.3308 15.25C16.8667 15.25 16.4215 15.0656 16.0934 14.7374C15.7652 14.4092 15.5808 13.9641 15.5808 13.5Z" fill="white"/>
<path d="M6.08008 12C6.08008 11.8011 6.1591 11.6103 6.29975 11.4697C6.4404 11.329 6.63117 11.25 6.83008 11.25H9.83008C10.029 11.25 10.2198 11.329 10.3604 11.4697C10.5011 11.6103 10.5801 11.8011 10.5801 12C10.5801 12.1989 10.5011 12.3897 10.3604 12.5303C10.2198 12.671 10.029 12.75 9.83008 12.75H6.83008C6.63117 12.75 6.4404 12.671 6.29975 12.5303C6.1591 12.3897 6.08008 12.1989 6.08008 12ZM6.83008 14.25C6.63117 14.25 6.4404 14.329 6.29975 14.4697C6.1591 14.6103 6.08008 14.8011 6.08008 15C6.08008 15.1989 6.1591 15.3897 6.29975 15.5303C6.4404 15.671 6.63117 15.75 6.83008 15.75H11.8301C12.029 15.75 12.2198 15.671 12.3604 15.5303C12.5011 15.3897 12.5801 15.1989 12.5801 15C12.5801 14.8011 12.5011 14.6103 12.3604 14.4697C12.2198 14.329 12.029 14.25 11.8301 14.25H6.83008ZM6.08008 17C6.08008 16.8011 6.1591 16.6103 6.29975 16.4697C6.4404 16.329 6.63117 16.25 6.83008 16.25H9.83008C10.029 16.25 10.2198 16.329 10.3604 16.4697C10.5011 16.6103 10.5801 16.8011 10.5801 17C10.5801 17.1989 10.5011 17.3897 10.3604 17.5303C10.2198 17.671 10.029 17.75 9.83008 17.75H6.83008C6.63117 17.75 6.4404 17.671 6.29975 17.5303C6.1591 17.3897 6.08008 17.1989 6.08008 17Z" fill="white"/>
</svg>
