<svg width="12" height="15" viewBox="0 0 12 15" fill="none" xmlns="http://www.w3.org/2000/svg">
<path d="M8.3543 7.24867C8.3543 7.24867 5.6543 10.1737 5.6543 11.9737C5.64937 12.3332 5.7153 12.6901 5.84833 13.0241C5.98135 13.3581 6.17886 13.6627 6.42958 13.9204C6.93592 14.4408 7.62827 14.7387 8.3543 14.7487C9.08033 14.7586 9.78057 14.4797 10.301 13.9734C10.5587 13.7227 10.7644 13.4237 10.9066 13.0934C11.0487 12.7632 11.1244 12.4082 11.1293 12.0487V11.9737C11.1293 10.1737 8.3543 7.24867 8.3543 7.24867ZM7.2518 6.23092L7.75355 5.68792L6.0293 0.878174H4.5293L0.779297 11.3782H2.2793L3.3518 8.37817H5.55905C6.06806 7.62136 6.63288 6.90361 7.2488 6.23092H7.2518ZM5.2793 2.97817L6.6743 6.87817H3.8873L5.2793 2.97817Z" fill="black"/>
</svg>
