<svg width="24" height="25" viewBox="0 0 24 25" fill="none" xmlns="http://www.w3.org/2000/svg">
<g clip-path="url(#clip0_3614_35052)">
<path d="M12 4.5C17.523 4.5 22 8.977 22 14.5C22 20.023 17.523 24.5 12 24.5C6.477 24.5 2 20.023 2 14.5C2 8.977 6.477 4.5 12 4.5ZM12 6.5C9.87827 6.5 7.84344 7.34285 6.34315 8.84315C4.84285 10.3434 4 12.3783 4 14.5C4 16.6217 4.84285 18.6566 6.34315 20.1569C7.84344 21.6571 9.87827 22.5 12 22.5C14.1217 22.5 16.1566 21.6571 17.6569 20.1569C19.1571 18.6566 20 16.6217 20 14.5C20 12.3783 19.1571 10.3434 17.6569 8.84315C16.1566 7.34285 14.1217 6.5 12 6.5ZM12 8.5C12.2449 8.50003 12.4813 8.58996 12.6644 8.75272C12.8474 8.91547 12.9643 9.13975 12.993 9.383L13 9.5V14.086L15.707 16.793C15.8863 16.973 15.9905 17.2144 15.9982 17.4684C16.006 17.7223 15.9168 17.9697 15.7488 18.1603C15.5807 18.3508 15.3464 18.4703 15.0935 18.4944C14.8406 18.5185 14.588 18.4454 14.387 18.29L14.293 18.207L11.293 15.207C11.1376 15.0514 11.0378 14.849 11.009 14.631L11 14.5V9.5C11 9.23478 11.1054 8.98043 11.2929 8.79289C11.4804 8.60536 11.7348 8.5 12 8.5Z" fill="white"/>
</g>
<defs>
<clipPath id="clip0_3614_35052">
<rect width="24" height="24" fill="white" transform="translate(0 0.5)"/>
</clipPath>
</defs>
</svg>
