<svg width="13" height="17" viewBox="0 0 13 17" fill="none" xmlns="http://www.w3.org/2000/svg">
<path d="M7.23533 1.5864C8.7461 2.33236 9.92236 2.91342 11.5321 2.12977C11.6518 2.07142 11.7845 2.0445 11.9175 2.05154C12.0506 2.05859 12.1796 2.09938 12.2926 2.17006C12.4055 2.24074 12.4986 2.339 12.5631 2.45558C12.6276 2.57217 12.6614 2.70324 12.6612 2.83647V10.3275C12.6614 10.4748 12.6201 10.6192 12.542 10.7442C12.464 10.8692 12.3524 10.9697 12.2199 11.0342C9.87918 12.1728 7.99386 11.2226 6.52706 10.4838C6.36498 10.4012 6.20217 10.32 6.03865 10.2403C5.22752 9.85008 4.55694 9.60274 3.87458 9.63571C3.27781 9.66398 2.56169 9.91604 1.6681 10.7319V15.4895C1.6681 15.6978 1.58537 15.8975 1.43812 16.0448C1.29086 16.192 1.09113 16.2748 0.882879 16.2748C0.674625 16.2748 0.474901 16.192 0.327643 16.0448C0.180385 15.8975 0.0976563 15.6978 0.0976562 15.4895V2.90322C0.0977797 2.79949 0.118452 2.69682 0.158481 2.60113C0.198509 2.50544 0.257099 2.41863 0.330867 2.34571C1.52598 1.16316 2.66062 0.629996 3.7992 0.57503C4.904 0.521635 5.88239 0.930736 6.72022 1.33434C6.89664 1.41967 7.06808 1.50343 7.23455 1.58561L7.23533 1.5864Z" fill="black"/>
</svg>
