<svg width="13" height="16" viewBox="0 0 13 16" fill="none" xmlns="http://www.w3.org/2000/svg">
<path d="M7.38767 1.29343C8.89844 2.03939 10.0747 2.62045 11.6844 1.8368C11.8042 1.77845 11.9368 1.75153 12.0699 1.75857C12.2029 1.76562 12.332 1.80641 12.4449 1.87709C12.5579 1.94777 12.651 2.04603 12.7154 2.16261C12.7799 2.2792 12.8137 2.41027 12.8136 2.5435V10.0345C12.8137 10.1819 12.7724 10.3263 12.6944 10.4512C12.6163 10.5762 12.5047 10.6767 12.3723 10.7412C10.0315 11.8798 8.1462 10.9297 6.6794 10.1908C6.51733 10.1082 6.35452 10.0271 6.191 9.94737C5.37986 9.55711 4.70928 9.30977 4.02692 9.34275C3.43015 9.37101 2.71403 9.62307 1.82045 10.4389V15.1966C1.82045 15.4048 1.73772 15.6046 1.59046 15.7518C1.4432 15.8991 1.24348 15.9818 1.03522 15.9818C0.826969 15.9818 0.627244 15.8991 0.479987 15.7518C0.332729 15.6046 0.25 15.4048 0.25 15.1966V2.61025C0.250123 2.50652 0.270796 2.40385 0.310824 2.30816C0.350852 2.21247 0.409443 2.12566 0.483211 2.05274C1.67832 0.870193 2.81297 0.337027 3.95154 0.282061C5.05635 0.228666 6.03474 0.637767 6.87257 1.04137C7.04898 1.1267 7.22042 1.21046 7.38689 1.29264L7.38767 1.29343Z" fill="#008DFF"/>
</svg>
