<svg width="13" height="17" viewBox="0 0 13 17" fill="none" xmlns="http://www.w3.org/2000/svg">
<path d="M7.48338 1.71628C8.99415 2.46224 10.1704 3.04331 11.7801 2.25965C11.8999 2.2013 12.0325 2.17438 12.1656 2.18143C12.2986 2.18847 12.4277 2.22926 12.5406 2.29994C12.6536 2.37062 12.7467 2.46888 12.8111 2.58546C12.8756 2.70205 12.9094 2.83312 12.9093 2.96635V10.4574C12.9094 10.6047 12.8681 10.7491 12.7901 10.8741C12.712 10.9991 12.6004 11.0995 12.468 11.1641C10.1272 12.3027 8.2419 11.3525 6.77511 10.6136C6.61303 10.531 6.45022 10.4499 6.2867 10.3702C5.47556 9.97996 4.80498 9.73262 4.12262 9.7656C3.52586 9.79387 2.80973 10.0459 1.91615 10.8618V15.6194C1.91615 15.8277 1.83342 16.0274 1.68616 16.1747C1.5389 16.3219 1.33918 16.4047 1.13093 16.4047C0.922672 16.4047 0.722948 16.3219 0.57569 16.1747C0.428432 16.0274 0.345703 15.8277 0.345703 15.6194V3.0331C0.345827 2.92937 0.366499 2.8267 0.406527 2.73101C0.446556 2.63532 0.505146 2.54851 0.578914 2.47559C1.77402 1.29304 2.90867 0.759878 4.04724 0.704913C5.15205 0.651518 6.13044 1.06062 6.96827 1.46422C7.14468 1.54955 7.31612 1.63331 7.48259 1.71549L7.48338 1.71628Z" fill="#FF6363"/>
</svg>
