<svg width="42" height="41" viewBox="0 0 42 41" fill="none" xmlns="http://www.w3.org/2000/svg">
<path d="M23.6212 11.5312V2.5625H17.0587C16.0144 2.5625 15.0128 2.96747 14.2744 3.68831C13.536 4.40915 13.1212 5.38682 13.1212 6.40625V29.4688C13.1212 30.4882 13.536 31.4658 14.2744 32.1867C15.0128 32.9075 16.0144 33.3125 17.0587 33.3125H32.8113C33.8556 33.3125 34.8571 32.9075 35.5955 32.1867C36.3339 31.4658 36.7488 30.4882 36.7488 29.4688V15.375H27.5587C26.5144 15.375 25.5128 14.97 24.7744 14.2492C24.036 13.5283 23.6212 12.5507 23.6212 11.5312ZM26.2462 11.5312V3.20312L36.0899 12.8125H27.5587C27.2106 12.8125 26.8767 12.6775 26.6306 12.4372C26.3844 12.1969 26.2462 11.8711 26.2462 11.5312ZM7.87378 10.25C7.87378 9.57038 8.15034 8.9186 8.64262 8.43804C9.13491 7.95748 9.80259 7.6875 10.4988 7.6875V29.4688C10.4988 31.1678 11.1902 32.7972 12.4209 33.9987C13.6516 35.2001 15.3208 35.875 17.0613 35.875H31.4988C31.4988 36.5546 31.2222 37.2064 30.7299 37.687C30.2377 38.1675 29.57 38.4375 28.8738 38.4375H17.2083C14.7326 38.4375 12.3583 37.4775 10.6078 35.7686C8.85723 34.0597 7.87378 31.742 7.87378 29.3253V10.25Z" fill="#8280FF"/>
</svg>
