<svg width="35" height="35" viewBox="0 0 35 35" fill="none" xmlns="http://www.w3.org/2000/svg">
<g clip-path="url(#clip0_2082_47673)">
<path fill-rule="evenodd" clip-rule="evenodd" d="M20.5805 5.45999L31.4364 10.9448C31.8951 11.1782 32.2576 11.5649 32.4609 12.0378C32.6642 12.5107 32.6954 13.0398 32.5491 13.5333C31.9803 15.4744 32.043 16.2896 32.4149 17.2098C32.7897 18.1402 32.5301 19.3229 31.5589 19.9369L16.5614 29.4306C15.9328 29.8287 15.1322 29.89 14.4366 29.5502L8.83659 26.7867L6.49743 25.6127L4.83493 24.764L3.81993 24.2317L3.29493 23.9458L2.9143 23.7271C1.4268 22.8302 0.963051 21.0073 0.971801 19.6146C0.977634 18.1985 1.46472 16.4296 2.81659 15.4583L3.25409 15.1564L4.50534 14.3383L7.48763 12.4337L18.4368 5.5577C18.7558 5.35883 19.1206 5.2455 19.4961 5.22864C19.8716 5.21178 20.2451 5.2905 20.5805 5.45999ZM29.2153 15.5867L16.5672 23.5929L16.4097 23.6848L16.2478 23.7606C16.0874 24.3556 16.032 24.7829 16.0378 25.1796C16.0408 25.4158 16.067 25.6579 16.118 25.9335L16.1793 26.2208L29.5201 17.7771L29.4151 17.4139C29.2915 16.9393 29.2239 16.4518 29.2139 15.9614L29.2153 15.5867ZM4.08388 18.4887C3.95351 18.8538 3.88739 19.2386 3.88847 19.6262C3.88409 20.6062 4.23409 21.1181 4.42076 21.2304L4.86993 21.4856L5.78284 21.9712L8.36409 23.2881L13.1401 25.6667C13.1289 25.5196 13.1221 25.3722 13.1197 25.2248C13.1142 24.6792 13.17 24.1348 13.286 23.6017L13.3837 23.1817L4.08388 18.4887ZM20.3647 10.0829C20.035 9.909 19.6512 9.86796 19.2921 9.96824C18.9331 10.0685 18.626 10.3025 18.4341 10.6221C18.2422 10.9417 18.18 11.3226 18.2602 11.6867C18.3405 12.0508 18.5571 12.3703 18.8655 12.5796L19.0114 12.6671L22.0739 14.2712C22.4036 14.4452 22.7874 14.4862 23.1465 14.3859C23.5055 14.2856 23.8126 14.0517 24.0045 13.7321C24.1964 13.4125 24.2586 13.0315 24.1784 12.6674C24.0981 12.3034 23.8815 11.9839 23.573 11.7746L23.4272 11.6871L20.3647 10.0829Z" fill="#FFCA80"/>
</g>
<defs>
<clipPath id="clip0_2082_47673">
<rect width="35" height="35" fill="white" transform="translate(0.000610352)"/>
</clipPath>
</defs>
</svg>
