<svg width="38" height="26" viewBox="0 0 38 26" fill="none" xmlns="http://www.w3.org/2000/svg">
<path d="M18.9996 0.100647L0.756348 6.94205L18.9996 16.0637L27.6887 11.7192L19.5374 9.22698C19.3695 9.30747 19.1858 9.34946 18.9996 9.34987C18.6681 9.34987 18.3502 9.21817 18.1157 8.98375C17.8813 8.74933 17.7496 8.43139 17.7496 8.09987C17.7496 7.76835 17.8813 7.4504 18.1157 7.21598C18.3502 6.98156 18.6681 6.84987 18.9996 6.84987L18.7929 7.5219L20.2411 7.96744L20.2417 7.97182L22.3788 8.62533L34.5465 12.369V13.3179C34.3782 13.4324 34.2404 13.5863 34.1451 13.7661C34.0498 13.946 33.9999 14.1464 33.9996 14.3499C33.9999 14.5582 34.0521 14.763 34.1516 14.9459C34.2511 15.1288 34.3947 15.284 34.5694 15.3973C34.0004 17.5477 33.9996 22.4267 33.9996 24.3499C35.2496 25.162 35.2496 25.1917 36.4996 24.3499C36.4996 22.4269 36.499 17.5489 35.9301 15.398C36.1048 15.2846 36.2485 15.1293 36.3479 14.9462C36.4474 14.7632 36.4996 14.5582 36.4996 14.3499C36.4996 14.1461 36.4498 13.9454 36.3544 13.7653C36.2591 13.5852 36.1212 13.4311 35.9528 13.3165V11.3306L31.3181 9.90455L37.2429 6.94205L18.9996 0.100647ZM8.34518 12.553L7.31994 18.7046C9.36486 18.972 11.811 20.1606 14.0598 21.566C15.3387 22.3654 16.5366 23.2428 17.5095 24.0942C18.1042 24.6145 18.6014 25.1137 18.9996 25.6049C19.3978 25.1136 19.8951 24.6145 20.4898 24.0942C21.4627 23.2428 22.6605 22.3654 23.9395 21.566C26.1882 20.1606 28.6344 18.972 30.6793 18.7046L29.6539 12.553H29.1656L18.9996 17.636L8.83346 12.553H8.34518Z" fill="#4AD991"/>
</svg>
