<svg width="40" height="40" viewBox="0 0 40 40" fill="none" xmlns="http://www.w3.org/2000/svg">
<path d="M20.0205 6.99463L1.79309 13.8301L20.0205 22.9438L28.702 18.603L20.5577 16.113C20.39 16.1934 20.2065 16.2354 20.0205 16.2358C19.6892 16.2358 19.3716 16.1042 19.1374 15.87C18.9031 15.6358 18.7716 15.3181 18.7716 14.9869C18.7716 14.6556 18.9031 14.338 19.1374 14.1038C19.3716 13.8696 19.6892 13.738 20.0205 13.738L19.8139 14.4094L21.2609 14.8546L21.2615 14.8589L23.3967 15.5119L35.5538 19.2523V20.2004C35.3857 20.3148 35.248 20.4685 35.1528 20.6482C35.0575 20.8279 35.0076 21.0281 35.0074 21.2315C35.0076 21.4396 35.0598 21.6442 35.1592 21.827C35.2587 22.0097 35.4021 22.1647 35.5767 22.2779C35.0082 24.4265 35.0074 29.3012 35.0074 31.2227C36.2563 32.0341 36.2563 32.0638 37.5052 31.2227C37.5052 29.3014 37.5046 24.4276 36.9362 22.2786C37.1108 22.1653 37.2543 22.0102 37.3537 21.8273C37.4531 21.6444 37.5052 21.4396 37.5052 21.2314C37.5052 21.0278 37.4554 20.8273 37.3602 20.6474C37.2649 20.4674 37.1272 20.3135 36.9588 20.199V18.2148L32.3282 16.79L38.2479 13.8301L20.0205 6.99463ZM9.37531 19.4361L8.35097 25.5823C10.3941 25.8495 12.8381 27.0371 15.0849 28.4413C16.3627 29.24 17.5596 30.1167 18.5316 30.9672C19.1258 31.4871 19.6226 31.9859 20.0205 32.4766C20.4183 31.9858 20.9152 31.4871 21.5093 30.9672C22.4814 30.1167 23.6782 29.24 24.956 28.4413C27.2028 27.0371 29.6469 25.8495 31.69 25.5823L30.6655 19.4361H30.1776L20.0205 24.5147L9.86316 19.4361H9.37531Z" fill="#FFCA80"/>
</svg>
