<svg width="35" height="25" viewBox="0 0 35 25" fill="none" xmlns="http://www.w3.org/2000/svg">
<path opacity="0.587821" d="M25.9598 6.76587C28.3165 6.76587 30.2274 8.55673 30.2274 10.7659C30.2274 12.975 28.3165 14.7659 25.9598 14.7659C23.6033 14.7657 21.6932 12.9749 21.6932 10.7659C21.6932 8.55682 23.6033 6.76602 25.9598 6.76587ZM13.16 0.0998535C16.3021 0.0999315 18.8493 2.48754 18.8495 5.43286C18.8495 8.37833 16.3022 10.7668 13.16 10.7668C10.0178 10.7668 7.47058 8.37838 7.47058 5.43286C7.47077 2.48749 10.0179 0.0998535 13.16 0.0998535Z" fill="#8280FF"/>
<path d="M25.3946 16.1038C30.2405 16.1531 34.1974 18.4485 34.4952 23.302C34.5072 23.4977 34.4949 24.1017 33.7237 24.1018H28.2364V24.1008C28.2363 21.1005 27.1789 18.3316 25.3946 16.1038ZM13.1348 13.4338C19.9449 13.4338 25.5401 16.4913 25.9571 23.0334C25.9737 23.2941 25.957 24.1007 24.8887 24.1008H1.39167C1.03488 24.1005 0.328447 23.379 0.358471 23.0325C0.909963 16.6691 6.4193 13.4338 13.1348 13.4338Z" fill="#8280FF"/>
</svg>
