<svg width="35" height="25" viewBox="0 0 35 25" fill="none" xmlns="http://www.w3.org/2000/svg">
<path opacity="0.587821" d="M25.9611 6.76587C28.3177 6.76587 30.2286 8.55673 30.2286 10.7659C30.2286 12.975 28.3177 14.7659 25.9611 14.7659C23.6045 14.7657 21.6945 12.9749 21.6945 10.7659C21.6945 8.55682 23.6045 6.76602 25.9611 6.76587ZM13.1613 0.0998535C16.3033 0.0999315 18.8505 2.48754 18.8507 5.43286C18.8507 8.37833 16.3034 10.7668 13.1613 10.7668C10.019 10.7668 7.4718 8.37838 7.4718 5.43286C7.47199 2.48749 10.0191 0.0998535 13.1613 0.0998535Z" fill="#FFCA80"/>
<path d="M25.3958 16.1038C30.2417 16.1531 34.1987 18.4485 34.4964 23.302C34.5084 23.4977 34.4961 24.1017 33.7249 24.1018H28.2376V24.1008C28.2375 21.1005 27.1801 18.3316 25.3958 16.1038ZM13.1361 13.4338C19.9461 13.4338 25.5413 16.4913 25.9583 23.0334C25.9749 23.2941 25.9582 24.1007 24.89 24.1008H1.3929C1.0361 24.1005 0.329667 23.379 0.359692 23.0325C0.911183 16.6691 6.42052 13.4338 13.1361 13.4338Z" fill="#FFCA80"/>
</svg>
